# xmcd
#
# Track frame offsets: 
#        150
#        23029
#        45647
#        78422
#        102802
#        133283
#        161283
#        185669
#        213622
#        240145
#        263549
#        293487
#
# Disc length: 4225 seconds
#
# Revision: 0
# Processed by: cddbd v1.5.2PL0 Copyright (c) Steve Scherf et al.
# Submitted via: ExactAudioCopy v1.3
#
DISCID=97107f0c
DTITLE=Awek - Chess Session
DYEAR=1998
DGENRE=Modern Electric Blues
TTITLE0=Allons Bouger
TTITLE1=Back Home
TTITLE2=I've Been Searching
TTITLE3=Rambling And Drinking
TTITLE4=Since My Baby Left Me
TTITLE5=Talking About Love
TTITLE6=Leaving In Peace
TTITLE7=I Can't Help Myself
TTITLE8=I'm Bad
TTITLE9=No Religion
TTITLE10=Put A Coin In The Juke Box
TTITLE11=Back To The Same Place
EXTD=
EXTT0=
EXTT1=
EXTT2=
EXTT3=
EXTT4=
EXTT5=
EXTT6=
EXTT7=
EXTT8=
EXTT9=
EXTT10=
EXTT11=
PLAYORDER=
